<svg xmlns="http://www.w3.org/2000/svg" width="512" height="512"><path d="M512.75 400c0-144-128-112-128-224 0-9.28-.894-17.21-2.524-23.964-8.415-56.509-46.078-101.86-94.886-115.68.433-1.974.66-4.016.66-6.105C288 13.612 273.6 0 256 0s-32 13.612-32 30.25c0 2.09.228 4.132.66 6.105-54.735 15.499-95.457 70.649-96.627 136.721-.02.96-.033 1.932-.033 2.923C128 288 0 256 0 400c0 38.113 85.295 69.998 199.485 78.04C210.247 498.242 231.513 512 256 512s45.754-13.758 56.515-33.96C426.705 469.998 512 438.113 512 400c0-.114-.013-.228-.014-.341l.764.341zm-99.627 27.048c-27.115 7.235-59.079 12.438-93.384 15.324C316.887 409.663 289.448 384 256 384s-60.887 25.663-63.739 58.372c-34.304-2.886-66.269-8.089-93.384-15.324-37.315-9.957-55.155-21.095-61.684-27.048 6.529-5.953 24.369-17.091 61.684-27.048C142.263 361.376 198.063 355 256 355s113.737 6.376 157.123 17.952c37.315 9.957 55.155 21.095 61.684 27.048-6.529 5.953-24.369 17.091-61.684 27.048z"/></svg>