<svg xmlns="http://www.w3.org/2000/svg" width="512" height="512"><path d="M464 64H320c0-35.346-28.653-64-64-64s-64 28.654-64 64H48c-8.836 0-16 7.164-16 16v416c0 8.837 7.164 16 16 16h416c8.837 0 16-7.163 16-16V80c0-8.836-7.163-16-16-16zM256 32c17.673 0 32 14.327 32 32s-14.327 32-32 32c-17.673 0-32-14.327-32-32s14.327-32 32-32zm192 448H64V96h64v48c0 8.836 7.164 16 16 16h224c8.837 0 16-7.164 16-16V96h64v384z"/><path d="M224 429.255 121.373 310.628l29.254-29.255L224 338.745l137.371-121.372 29.257 29.254z"/></svg>