<svg xmlns="http://www.w3.org/2000/svg" width="512" height="512"><path d="M224 64v-8c0-13.2-10.8-24-24-24h-80c-13.2 0-24 10.8-24 24v8H0v64h96v8c0 13.2 10.8 24 24 24h80c13.2 0 24-10.8 24-24v-8h288V64H224zm-96 64V64h64v64h-64zm288 88c0-13.2-10.8-24-24-24h-80c-13.2 0-24 10.8-24 24v8H0v64h288v8c0 13.2 10.8 24 24 24h80c13.2 0 24-10.8 24-24v-8h96v-64h-96v-8zm-96 72v-64h64v64h-64zm-96 88c0-13.2-10.8-24-24-24h-80c-13.2 0-24 10.8-24 24v8H0v64h96v8c0 13.2 10.8 24 24 24h80c13.2 0 24-10.8 24-24v-8h288v-64H224v-8zm-96 72v-64h64v64h-64z"/></svg>