<svg xmlns="http://www.w3.org/2000/svg" viewBox="0 0 512 512" xml:space="preserve"><path style="fill:#415e72" d="M0 341.508V62.236a9.127 9.127 0 0 1 8.968-8.968h423.4a9.127 9.127 0 0 1 8.968 8.968v279.28L0 341.508z"/><path style="fill:#cfdce5" d="M441.328 341.508v35.856a9.127 9.127 0 0 1-8.968 8.968H8.968c-4.912-.088-8.88-4.048-8.968-8.96v-35.864h441.328zM126.192 449.764h188.944v8.968H126.192z"/><path style="fill:#aec4ce" d="M283.416 449.772H157.912l8.968-63.44h107.576z"/><path style="fill:#fff" d="M17.928 71.196H423.4V323.58H17.928z"/><path style="fill:#94a7af" d="M274.456 386.332H166.88l-5.008 35.408 114.192-24.008z"/><path style="fill:#e04f5f" d="M62.488 238.644 42.4 159.58h10.816l9.384 40c2.344 9.848 4.456 19.704 5.864 27.328h.232c1.296-7.856 3.752-17.24 6.456-27.448l10.56-39.888h10.672l9.6 40.128c2.232 9.384 4.344 18.768 5.512 27.096h.232c1.64-8.68 3.872-17.48 6.336-27.328l10.4-39.888h10.44l-22.4 79.072h-10.616l-9.968-41.176a238.1 238.1 0 0 1-5.168-25.816h-.232a247.884 247.884 0 0 1-6.096 25.816L73.16 238.644H62.488zm101.104 0-20.064-79.072h10.792l9.384 40c2.344 9.848 4.456 19.704 5.864 27.328h.232c1.296-7.856 3.752-17.24 6.456-27.448l10.56-39.888h10.672l9.6 40.128c2.232 9.384 4.344 18.768 5.512 27.096h.232c1.64-8.68 3.872-17.48 6.336-27.328l10.4-39.888h10.44l-22.4 79.072h-10.616l-9.968-41.168a238.1 238.1 0 0 1-5.168-25.816h-.232a247.884 247.884 0 0 1-6.096 25.816l-11.264 41.168h-10.672z"/><path style="fill:#25b6d2" d="m496.968 327.876-39.512-39.472-8.656-8.672c-9.848-9.84-25.816-9.832-35.656.016s-9.832 25.816.024 35.656l14.968 14.952.056.072 15.2 15.152 33.016 32.992L512 342.9l-15.032-15.024z"/><ellipse style="fill:#415e72" cx="346.4" cy="213.068" rx="121.784" ry="121.704"/><ellipse style="fill:#fff" cx="346.4" cy="213.068" rx="112.48" ry="112.4"/><path style="fill:#e81241" d="M346.4 314.116c-55.808-.04-101.016-45.312-100.976-101.12s45.312-101.016 101.12-100.976c55.776.04 100.976 45.272 100.976 101.048-.08 55.8-45.32 101.008-101.12 101.048zm0-198.104c-53.6.04-97.016 43.52-96.976 97.12s43.52 97.016 97.12 96.976c53.568-.04 96.968-43.472 96.976-97.04-.072-53.6-43.52-97.016-97.12-97.056z"/><path style="fill:#e04f5f" d="m303.568 252.332-23.336-92H292.8l10.92 46.536c2.728 11.464 5.176 22.928 6.824 31.8h.272c1.504-9.144 4.368-20.064 7.504-31.936l12.28-46.4h12.424l11.2 46.672c2.592 10.92 5.048 21.832 6.4 31.528h.272c1.912-10.104 4.504-20.336 7.368-31.808l12.152-46.4h12.152l-26.072 92h-12.432l-11.6-47.904a275.715 275.715 0 0 1-6.008-30.024h-.272a286.051 286.051 0 0 1-7.096 30.024L316 252.332h-12.432zm89.656-7.088c-.296-4.448 3.08-8.288 7.528-8.584.216-.016.44-.016.656-.016a8.612 8.612 0 0 1 9.024 8.176c.232 4.752-3.424 8.784-8.176 9.024s-8.784-3.424-9.024-8.176c-.008-.144-.008-.28-.008-.424z"/></svg>